<svg width="24" height="24" viewBox="0 0 24 24" fill="none" xmlns="http://www.w3.org/2000/svg">
<path d="M12 0C5.38332 0 0 5.38332 0 12C0 18.6166 5.38332 24 12 24C18.6166 24 24 18.6166 24 12C24 5.38332 18.6167 0 12 0ZM12 22.9565C5.95824 22.9565 1.04346 18.0417 1.04346 12C1.04346 5.95824 5.95824 1.04346 12 1.04346C18.0417 1.04346 22.9565 5.95824 22.9565 12C22.9565 18.0417 18.0417 22.9565 12 22.9565Z" fill="#8A8C9B"/>
<path d="M17.0653 16.3273L12.522 11.784V3.65219C12.522 3.36419 12.2883 3.13044 12.0003 3.13044C11.7123 3.13044 11.4785 3.36419 11.4785 3.65219V12C11.4785 12.1388 11.5338 12.2713 11.6309 12.3694L16.3265 17.0651C16.4288 17.1663 16.5623 17.2174 16.6959 17.2174C16.8295 17.2174 16.963 17.1663 17.0653 17.0651C17.2688 16.8615 17.2688 16.5308 17.0653 16.3273Z" fill="#8A8C9B"/>
</svg>
