<svg width="16" height="16" viewBox="0 0 16 16" fill="none" xmlns="http://www.w3.org/2000/svg">
<path d="M15.0188 10.6687C14.6656 10.6687 14.3813 10.9531 14.3813 11.3062V14.3812H1.61875V11.3062C1.61875 10.9531 1.33438 10.6687 0.98125 10.6687C0.628125 10.6687 0.34375 10.9531 0.34375 11.3062V15.0187C0.34375 15.3719 0.628125 15.6562 0.98125 15.6562H15.0188C15.3719 15.6562 15.6562 15.3719 15.6562 15.0187V11.3062C15.6562 10.9531 15.3719 10.6687 15.0188 10.6687Z" fill="white"/>
<path d="M7.53147 11.425C7.89084 11.7875 8.33147 11.5875 8.46584 11.425L12.1315 7.48125C12.3721 7.22187 12.3565 6.81875 12.0971 6.57812C11.8377 6.3375 11.4346 6.35312 11.1971 6.6125L8.63772 9.36562V1.07813C8.63772 0.725003 8.35334 0.440628 8.00022 0.440628C7.64709 0.440628 7.36272 0.725003 7.36272 1.07813V9.36875L4.80334 6.61562C4.56272 6.35625 4.15959 6.34375 3.90022 6.58125C3.64084 6.82187 3.62834 7.225 3.86584 7.48437L7.53147 11.425Z" fill="white"/>
</svg>
