<svg width="12" height="14" viewBox="0 0 12 14" fill="none" xmlns="http://www.w3.org/2000/svg">
<path d="M1.85714 2.8L2.55864 12.0754C2.59809 12.597 3.03277 13 3.5558 13H8.6442C9.16723 13 9.60191 12.597 9.64136 12.0754L10.3429 2.8M1.85714 2.8H1M1.85714 2.8H4.17143M10.3429 2.8H11.2M10.3429 2.8H8.02857M4.17143 2.8V2C4.17143 1.44772 4.61914 1 5.17143 1H7.02857C7.58086 1 8.02857 1.44772 8.02857 2V2.8M4.17143 2.8H8.02857" stroke="#E52443" stroke-linecap="round" stroke-linejoin="round"/>
<path d="M4 4.60004L4.3 11.2" stroke="#E52443" stroke-linecap="round"/>
<path d="M8.1999 4.60004L7.8999 11.2" stroke="#E52443" stroke-linecap="round"/>
<path d="M6.1001 4.60004V11.2" stroke="#E52443" stroke-linecap="round"/>
</svg>
