<svg width="24" height="24" viewBox="0 0 24 24" fill="none" xmlns="http://www.w3.org/2000/svg">
<rect x="1.59961" y="4.00003" width="20.8" height="18.4" rx="3" stroke="black" stroke-linecap="round"/>
<path d="M1.59961 9.60001H22.3996" stroke="black" stroke-linecap="round"/>
<path d="M6.4 1.60004V6.40004" stroke="black" stroke-linecap="round"/>
<path d="M17.5992 1.60004V6.40004" stroke="black" stroke-linecap="round"/>
<path fill-rule="evenodd" clip-rule="evenodd" d="M5.9998 15.2C6.66255 15.2 7.1998 14.6628 7.1998 14C7.1998 13.3373 6.66255 12.8 5.9998 12.8C5.33706 12.8 4.7998 13.3373 4.7998 14C4.7998 14.6628 5.33706 15.2 5.9998 15.2ZM7.1998 18C7.1998 18.6628 6.66255 19.2 5.9998 19.2C5.33706 19.2 4.7998 18.6628 4.7998 18C4.7998 17.3373 5.33706 16.8 5.9998 16.8C6.66255 16.8 7.1998 17.3373 7.1998 18ZM11.1998 18C11.1998 18.6628 10.6625 19.2 9.9998 19.2C9.33706 19.2 8.7998 18.6628 8.7998 18C8.7998 17.3373 9.33706 16.8 9.9998 16.8C10.6625 16.8 11.1998 17.3373 11.1998 18ZM13.9998 19.2C14.6625 19.2 15.1998 18.6628 15.1998 18C15.1998 17.3373 14.6625 16.8 13.9998 16.8C13.3371 16.8 12.7998 17.3373 12.7998 18C12.7998 18.6628 13.3371 19.2 13.9998 19.2ZM19.1998 18C19.1998 18.6628 18.6625 19.2 17.9998 19.2C17.3371 19.2 16.7998 18.6628 16.7998 18C16.7998 17.3373 17.3371 16.8 17.9998 16.8C18.6625 16.8 19.1998 17.3373 19.1998 18ZM11.1998 14C11.1998 14.6628 10.6625 15.2 9.9998 15.2C9.33706 15.2 8.7998 14.6628 8.7998 14C8.7998 13.3373 9.33706 12.8 9.9998 12.8C10.6625 12.8 11.1998 13.3373 11.1998 14ZM13.9998 15.2C14.6625 15.2 15.1998 14.6628 15.1998 14C15.1998 13.3373 14.6625 12.8 13.9998 12.8C13.3371 12.8 12.7998 13.3373 12.7998 14C12.7998 14.6628 13.3371 15.2 13.9998 15.2ZM19.1998 14C19.1998 14.6628 18.6625 15.2 17.9998 15.2C17.3371 15.2 16.7998 14.6628 16.7998 14C16.7998 13.3373 17.3371 12.8 17.9998 12.8C18.6625 12.8 19.1998 13.3373 19.1998 14Z" fill="black"/>
</svg>
