<svg width="78" height="18" viewBox="0 0 78 18" fill="none" xmlns="http://www.w3.org/2000/svg">
<path fill-rule="evenodd" clip-rule="evenodd" d="M4.90482 6.97347C6.59937 7.15129 8.23765 7.32322 9.89597 7.49725C9.74602 6.22016 9.61359 4.92067 8.98644 3.74757C8.81992 3.43604 8.54871 3.17631 8.30512 2.9116C8.16272 2.75681 7.96064 2.74864 7.78087 2.85562C7.58543 2.972 7.38724 3.09341 7.21958 3.24507C6.59021 3.81405 6.12811 4.51341 5.73614 5.25689C5.44375 5.81153 5.18791 6.3854 4.90482 6.97347ZM0 14.767C0.103606 14.3481 0.210489 13.9302 0.310201 13.5104C0.809952 11.4064 1.42603 9.33789 2.11847 7.28822C2.65758 5.69239 3.30438 4.15938 4.26675 2.77214C4.8666 1.90749 5.55518 1.12698 6.50037 0.620389C7.74445 -0.0464038 9.02091 0.111095 10.0808 1.04099C10.9546 1.80768 11.4615 2.79531 11.8047 3.88061C12.1176 4.86976 12.306 5.88622 12.3904 6.91862C12.4992 8.24917 12.5741 9.58247 12.6826 10.913C12.7756 12.0538 12.8826 13.1939 13.0081 14.3316C13.0893 15.0675 12.6566 15.7265 11.9636 15.8513C11.2686 15.9764 10.6028 15.5101 10.4971 14.7663C10.374 13.8996 10.2927 13.0264 10.214 12.154C10.1552 11.502 10.1293 10.847 10.0844 10.1248C8.09653 9.90882 6.1074 9.69273 4.07977 9.47241C3.96738 9.83327 3.83975 10.1952 3.74212 10.5651C3.33183 12.12 2.93402 13.6783 2.52411 15.2333C2.362 15.8482 1.85423 16.2448 1.2748 16.2344C0.674295 16.2236 0.192635 15.8114 0.0421642 15.1814C0.0351843 15.1524 0.0143871 15.1266 0 15.0993V14.767Z" fill="black"/>
<path fill-rule="evenodd" clip-rule="evenodd" d="M50.252 8.00528C51.1404 8.12232 51.9876 8.27108 52.8411 8.33794C54.2071 8.44487 55.4786 8.15551 56.5863 7.29366C56.9028 7.04737 57.1091 6.74609 57.169 6.35299C57.3496 5.16688 57.0602 4.10722 56.2561 3.2138C55.8043 2.71177 55.2139 2.47459 54.5441 2.63371C54.1436 2.72886 53.7472 2.89832 53.3889 3.10397C51.5268 4.17275 50.7344 5.94127 50.252 8.00528ZM55.2218 0C55.5427 0.0720306 55.8719 0.118373 56.1829 0.220507C57.5741 0.677429 58.5117 1.64246 59.1262 2.93811C59.7766 4.30958 59.9753 5.73837 59.5835 7.2248C59.309 8.26618 58.6498 9.01303 57.7742 9.601C56.5072 10.4518 55.1171 10.8875 53.59 10.9244C52.4198 10.9526 51.2759 10.7772 50.1338 10.5629C50.089 10.5545 50.0432 10.5528 49.9589 10.5437C49.9589 10.9522 49.9317 11.3469 49.9641 11.7367C50.0522 12.7984 50.1502 13.8598 50.2739 14.9179C50.3696 15.7369 49.9695 16.3489 49.198 16.4854C48.5457 16.6007 47.8741 16.1478 47.7777 15.4657C47.6386 14.4816 47.498 13.4927 47.4531 12.5016C47.4057 11.4537 47.4097 10.3958 47.4974 9.35125C47.696 6.98635 48.3053 4.74637 49.8183 2.84722C50.8977 1.49241 52.263 0.549037 53.9583 0.120225C54.1703 0.0665701 54.389 0.0394103 54.6045 0H55.2218Z" fill="black"/>
<path fill-rule="evenodd" clip-rule="evenodd" d="M66.5719 2.95793C66.4007 3.21396 66.2568 3.40949 66.1331 3.61699C65.4464 4.76938 64.9677 6.01432 64.515 7.27098C63.8048 9.24287 63.3125 11.2736 62.8673 13.3176C62.6809 14.1731 62.4886 15.0274 62.2903 15.8802C62.1477 16.4936 61.6896 16.8896 61.1003 16.9293C60.5737 16.9649 60.0335 16.64 59.8618 16.1152C59.7797 15.8642 59.7533 15.5592 59.8114 15.3037C60.2961 13.1735 60.7602 11.0368 61.3219 8.9264C61.8989 6.75817 62.6525 4.64536 63.7307 2.66459C64.0907 2.00311 64.4979 1.37264 65.0632 0.860975C66.1225 -0.0978814 67.5183 0.0141292 68.4137 1.134C69.0154 1.88645 69.3288 2.77522 69.5444 3.69291C69.7571 4.59797 69.9035 5.51865 70.0793 6.4324C70.0846 6.45979 70.0931 6.48658 70.1161 6.57551C70.2196 6.41616 70.2975 6.30244 70.3694 6.18497C70.8588 5.38484 71.4571 4.68994 72.2734 4.20406C73.1996 3.65279 74.1399 3.67183 74.8822 4.27813C75.3784 4.68344 75.6377 5.24183 75.8151 5.84196C76.043 6.61236 76.1214 7.40607 76.1574 8.20391C76.2413 10.0603 76.383 11.91 76.7683 13.7325C76.9451 14.5693 77.2163 15.374 77.595 16.1438C77.8751 16.7133 77.7085 17.3779 77.2219 17.7401C76.7272 18.1084 76.0658 18.0865 75.6091 17.6663C75.479 17.5465 75.3719 17.389 75.2917 17.23C74.7034 16.0645 74.3469 14.8232 74.1251 13.5421C73.8133 11.7406 73.6819 9.92115 73.5904 8.09722C73.5653 7.59809 73.4772 7.10213 73.418 6.60471C73.3865 6.5973 73.355 6.5899 73.3235 6.58249C73.1942 6.71359 73.037 6.82683 72.9402 6.97868C72.4056 7.81774 71.886 8.66625 71.3608 9.51129C71.165 9.82638 70.9872 10.1549 70.7683 10.4531C70.0652 11.411 68.835 11.3212 68.2676 10.2748C67.9735 9.73256 67.8572 9.13281 67.7623 8.53216C67.5667 7.29325 67.4066 6.04827 67.1862 4.81397C67.0927 4.29052 66.8861 3.78707 66.7259 3.27606C66.6983 3.18813 66.6456 3.10807 66.5719 2.95793Z" fill="black"/>
<path fill-rule="evenodd" clip-rule="evenodd" d="M24.7027 6.81448C25.0035 6.54516 25.2677 6.30105 25.54 6.06645C26.1165 5.56969 26.7259 5.12031 27.4125 4.78291C29.3254 3.84299 31.0436 4.54773 31.7491 6.55727C32.1331 7.65116 32.1733 8.78347 32.1615 9.92552C32.1485 11.1908 32.1331 12.4564 32.1529 13.7214C32.1623 14.3201 32.2437 14.9184 32.3063 15.5154C32.3799 16.2166 31.8704 16.8744 31.185 16.9442C30.4612 17.0179 29.8616 16.5103 29.7692 15.7853C29.5234 13.8555 29.5481 11.9201 29.6098 9.98231C29.6352 9.1838 29.6451 8.38035 29.3987 7.60829C29.1433 6.80807 29.0921 6.79791 28.3912 7.17421C27.4906 7.65776 26.7614 8.36121 26.0859 9.12549C25.7417 9.51489 25.3628 9.87761 24.9711 10.2197C24.6534 10.4971 24.2593 10.6232 23.8287 10.6021C23.1735 10.5699 22.6525 10.1201 22.4663 9.44139C22.2049 8.48766 22.1566 7.51019 22.132 6.5302C22.1106 5.67647 22.1099 4.82203 22.0754 3.96887C22.0646 3.70102 21.9739 3.4364 21.9197 3.17036C21.8885 3.16044 21.8574 3.15056 21.8262 3.14064C21.615 3.36898 21.3833 3.58175 21.1962 3.82828C20.4765 4.77664 20.0144 5.86089 19.6122 6.96866C18.8652 9.02644 18.3032 11.1365 17.9103 13.2902C17.8468 13.6385 17.8208 13.9964 17.8086 14.3509C17.7842 15.0626 17.2383 15.6194 16.5397 15.6196C15.8317 15.6199 15.2229 15.0549 15.2699 14.3381C15.3245 13.5057 15.421 12.6688 15.59 11.8526C15.9836 9.95149 16.4955 8.07907 17.1546 6.25077C17.6676 4.82768 18.2712 3.4469 19.1928 2.23078C19.6807 1.58697 20.2569 1.04154 21.0005 0.695113C22.0201 0.220053 23.062 0.468006 23.7573 1.3508C24.3542 2.10852 24.5847 2.99658 24.6345 3.93293C24.6802 4.79307 24.6731 5.65606 24.6899 6.51772C24.6915 6.601 24.697 6.68424 24.7027 6.81448Z" fill="black"/>
<path fill-rule="evenodd" clip-rule="evenodd" d="M39.6454 8.22958C40.4465 8.24729 41.0771 8.82073 41.0663 9.52157C41.0545 10.2852 40.3093 10.9787 39.5262 10.9546C38.6984 10.9292 38.0996 10.3693 38.1172 9.63729C38.1357 8.87173 38.8518 8.21201 39.6454 8.22958Z" fill="black"/>
</svg>
