<svg width="16" height="16" viewBox="0 0 16 16" fill="none" xmlns="http://www.w3.org/2000/svg">
<path d="M15.0188 10.6687C14.6656 10.6687 14.3813 10.9531 14.3813 11.3062V14.3812H1.61875V11.3062C1.61875 10.9531 1.33438 10.6687 0.98125 10.6687C0.628125 10.6687 0.34375 10.9531 0.34375 11.3062V15.0187C0.34375 15.3719 0.628125 15.6562 0.98125 15.6562H15.0188C15.3719 15.6562 15.6562 15.3719 15.6562 15.0187V11.3062C15.6562 10.9531 15.3719 10.6687 15.0188 10.6687Z" fill="black"/>
<path d="M7.53123 0.644196C7.8906 0.281695 8.33122 0.481695 8.4656 0.644196L12.1312 4.58794C12.3719 4.84732 12.3562 5.25044 12.0969 5.49107C11.8375 5.73169 11.4344 5.71607 11.1968 5.45669L8.63748 2.70357V10.9911C8.63748 11.3442 8.3531 11.6286 7.99998 11.6286C7.64685 11.6286 7.36248 11.3442 7.36248 10.9911V2.70044L4.8031 5.45357C4.56247 5.71294 4.15935 5.72544 3.89998 5.48794C3.6406 5.24732 3.6281 4.84419 3.8656 4.58482L7.53123 0.644196Z" fill="black"/>
</svg>
